# Blender 4.1.1
# www.blender.org
o err
v -0.778550 -0.297395 0.070839
v -0.778550 -0.155716 0.070839
v -0.778550 -0.297395 -0.070839
v -0.778550 -0.155716 -0.070839
v -0.636872 -0.297395 0.070839
v -0.636872 -0.155716 0.070839
v -0.636872 -0.297395 -0.070839
v -0.636872 -0.155716 -0.070839
v -0.778550 -0.155716 0.070839
v -0.778550 -0.155716 -0.070839
v -0.636872 -0.155716 -0.070839
v -0.636872 -0.155716 0.070839
v -0.778550 -0.084877 0.070839
v -0.778550 -0.084877 -0.070839
v -0.636872 -0.084877 -0.070839
v -0.636872 -0.084877 0.070839
v -0.778550 0.056801 0.070839
v -0.778550 0.056801 -0.070839
v -0.636872 0.056801 -0.070839
v -0.636872 0.056801 0.070839
v -0.778550 0.127640 0.070839
v -0.778550 0.127640 -0.070839
v -0.636872 0.127640 -0.070839
v -0.636872 0.127640 0.070839
v -0.778550 0.269319 0.070839
v -0.778550 0.269319 -0.070839
v -0.636872 0.269319 -0.070839
v -0.636872 0.269319 0.070839
v -0.484099 -0.155716 -0.070839
v -0.484099 -0.297395 -0.070839
v -0.484099 -0.297395 0.070839
v -0.484099 -0.155716 0.070839
v -0.484099 -0.084877 -0.070839
v -0.484099 -0.084877 0.070839
v -0.484099 0.056801 -0.070839
v -0.484099 0.056801 0.070839
v -0.484099 0.127640 -0.070839
v -0.484099 0.127640 0.070839
v -0.484099 0.269319 -0.070839
v -0.484099 0.269319 0.070839
v -0.424354 -0.297395 0.070839
v -0.424354 0.127640 0.070839
v -0.424354 -0.297395 -0.070839
v -0.424354 0.127640 -0.070839
v -0.282676 -0.297395 0.070839
v -0.282676 0.127640 0.070839
v -0.282676 -0.297395 -0.070839
v -0.282676 0.127640 -0.070839
v -0.424354 0.269319 0.070839
v -0.424354 0.269319 -0.070839
v -0.282676 0.269319 -0.070839
v -0.282676 0.269319 0.070839
v -0.140998 0.127640 -0.070839
v -0.140998 0.127640 0.070839
v -0.140998 0.269319 -0.070839
v -0.140998 0.269319 0.070839
v 0.000681 0.127640 -0.070839
v 0.000681 0.127640 0.070839
v 0.000681 0.269319 -0.070839
v 0.000681 0.269319 0.070839
v -0.282676 -0.014038 -0.070839
v -0.282676 -0.014038 0.070839
v -0.140998 -0.014038 -0.070839
v -0.140998 -0.014038 0.070839
v -0.282676 -0.084877 -0.070839
v -0.282676 -0.084877 0.070839
v -0.140998 -0.084877 -0.070839
v -0.140998 -0.084877 0.070839
v -0.140998 -0.297395 -0.070839
v -0.140998 -0.297395 0.070839
v 0.000681 -0.297395 -0.070839
v 0.000681 -0.297395 0.070839
v 0.071520 -0.297395 0.070839
v 0.071520 0.127640 0.070839
v 0.071520 -0.297395 -0.070839
v 0.071520 0.127640 -0.070839
v 0.213198 -0.297395 0.070839
v 0.213198 0.127640 0.070839
v 0.213198 -0.297395 -0.070839
v 0.213198 0.127640 -0.070839
v 0.071520 0.269319 0.070839
v 0.071520 0.269319 -0.070839
v 0.213198 0.269319 -0.070839
v 0.213198 0.269319 0.070839
v 0.354877 0.127640 -0.070839
v 0.354877 0.127640 0.070839
v 0.354877 0.269319 -0.070839
v 0.354877 0.269319 0.070839
v 0.496555 0.127640 -0.070839
v 0.496555 0.127640 0.070839
v 0.496555 0.269319 -0.070839
v 0.496555 0.269319 0.070839
v 0.213198 -0.014038 -0.070839
v 0.213198 -0.014038 0.070839
v 0.354877 -0.014038 -0.070839
v 0.354877 -0.014038 0.070839
v 0.213198 -0.084877 -0.070839
v 0.213198 -0.084877 0.070839
v 0.354877 -0.084877 -0.070839
v 0.354877 -0.084877 0.070839
v 0.354877 -0.297395 -0.070839
v 0.354877 -0.297395 0.070839
v 0.496555 -0.297395 -0.070839
v 0.496555 -0.297395 0.070839
v 0.567394 -0.297395 0.070839
v 0.567394 -0.155716 0.070839
v 0.567394 -0.297395 -0.070839
v 0.567394 -0.155716 -0.070839
v 0.709073 -0.297395 0.070839
v 0.709073 -0.155716 0.070839
v 0.709073 -0.297395 -0.070839
v 0.709073 -0.155716 -0.070839
v 0.567394 -0.109222 0.070839
v 0.567394 0.269319 0.070839
v 0.567394 -0.109222 -0.070839
v 0.567394 0.269319 -0.070839
v 0.709073 -0.109222 0.070839
v 0.709073 0.269319 0.070839
v 0.709073 -0.109222 -0.070839
v 0.709073 0.269319 -0.070839
vn -1.0000 -0.0000 -0.0000
vn -0.0000 -0.0000 -1.0000
vn -0.0000 -0.0000 1.0000
vn -0.0000 -1.0000 -0.0000
vn -0.0000 1.0000 -0.0000
vn 1.0000 -0.0000 -0.0000
vn 0.7071 -0.7071 -0.0000
vn -0.7071 0.7071 -0.0000
vn 0.8321 0.5547 -0.0000
vn -0.8321 -0.5547 -0.0000
vt 0.625000 0.000000
vt 0.375000 0.250000
vt 0.375000 0.000000
vt 0.625000 0.250000
vt 0.375000 0.500000
vt 0.625000 0.500000
vt 0.625000 0.750000
vt 0.375000 1.000000
vt 0.375000 0.750000
vt 0.125000 0.750000
vt 0.125000 0.500000
vt 0.625000 1.000000
vt 0.875000 0.500000
vt 0.875000 0.750000
s 0
f 2/1/1 3/2/1 1/3/1
f 4/4/2 7/5/2 3/2/2
f 8/6/2 30/5/2 7/5/2
f 6/7/3 1/8/3 5/9/3
f 7/5/4 1/10/4 3/11/4
f 8/6/5 10/4/5 11/6/5
f 11/6/6 16/7/6 12/7/6
f 6/7/5 11/6/5 12/7/5
f 4/4/5 9/1/5 10/4/5
f 2/12/5 12/7/5 9/12/5
f 16/7/3 17/12/3 13/12/3
f 9/1/1 14/4/1 10/4/1
f 12/7/3 13/12/3 9/12/3
f 10/4/2 15/6/2 11/6/2
f 18/4/2 23/6/2 19/6/2
f 14/4/2 19/6/2 15/6/2
f 5/9/3 32/7/3 6/7/3
f 13/1/1 18/4/1 14/4/1
f 28/7/5 39/6/5 27/6/5
f 19/6/6 24/7/6 20/7/6
f 17/1/1 22/4/1 18/4/1
f 20/7/3 21/12/3 17/12/3
f 26/13/5 28/7/5 27/6/5
f 21/1/1 26/4/1 22/4/1
f 24/7/3 25/12/3 21/12/3
f 22/4/2 27/6/2 23/6/2
f 29/6/6 31/9/6 30/5/6
f 33/6/6 36/7/6 34/7/6
f 37/6/6 40/7/6 38/7/6
f 20/7/5 35/6/5 19/6/5
f 7/5/4 31/9/4 5/9/4
f 27/6/2 37/6/2 23/6/2
f 23/6/4 38/7/4 24/7/4
f 19/6/2 33/6/2 15/6/2
f 6/7/5 29/6/5 8/6/5
f 24/7/3 40/7/3 28/7/3
f 16/7/3 36/7/3 20/7/3
f 15/6/4 34/7/4 16/7/4
f 42/1/1 43/2/1 41/3/1
f 44/4/2 47/5/2 43/2/2
f 48/6/6 45/9/6 47/5/6
f 46/7/3 41/8/3 45/9/3
f 47/5/4 41/10/4 43/11/4
f 44/4/2 51/6/2 48/6/2
f 50/13/5 52/7/5 51/6/5
f 46/7/3 56/7/3 52/7/3
f 42/1/1 50/4/1 44/4/1
f 46/7/3 49/12/3 42/12/3
f 54/7/3 60/7/3 56/7/3
f 52/7/5 55/6/5 51/6/5
f 48/6/4 54/7/4 46/7/4
f 51/6/2 53/6/2 48/6/2
f 57/6/6 60/7/6 58/7/6
f 56/7/5 59/6/5 55/6/5
f 55/6/2 57/6/2 53/6/2
f 54/7/3 64/7/3 58/7/3
f 62/7/3 68/7/3 64/7/3
f 58/7/7 63/6/7 57/6/7
f 53/6/2 63/6/2 61/6/2
f 53/6/8 62/7/8 54/7/8
f 67/6/2 69/6/2 65/6/2
f 61/6/1 66/7/1 62/7/1
f 63/6/2 65/6/2 61/6/2
f 64/7/6 67/6/6 63/6/6
f 69/6/4 72/7/4 70/7/4
f 68/7/9 71/6/9 67/6/9
f 68/7/3 70/7/3 72/7/3
f 65/6/10 70/7/10 66/7/10
f 74/1/1 75/2/1 73/3/1
f 76/4/2 79/5/2 75/2/2
f 80/6/6 77/9/6 79/5/6
f 78/7/3 73/8/3 77/9/3
f 79/5/4 73/10/4 75/11/4
f 76/4/2 83/6/2 80/6/2
f 82/13/5 84/7/5 83/6/5
f 78/7/3 88/7/3 84/7/3
f 74/1/1 82/4/1 76/4/1
f 78/7/3 81/12/3 74/12/3
f 86/7/3 92/7/3 88/7/3
f 84/7/5 87/6/5 83/6/5
f 80/6/4 86/7/4 78/7/4
f 83/6/2 85/6/2 80/6/2
f 89/6/6 92/7/6 90/7/6
f 88/7/5 91/6/5 87/6/5
f 87/6/2 89/6/2 85/6/2
f 86/7/3 96/7/3 90/7/3
f 94/7/3 100/7/3 96/7/3
f 90/7/7 95/6/7 89/6/7
f 85/6/2 95/6/2 93/6/2
f 85/6/8 94/7/8 86/7/8
f 99/6/2 101/6/2 97/6/2
f 93/6/1 98/7/1 94/7/1
f 95/6/2 97/6/2 93/6/2
f 96/7/6 99/6/6 95/6/6
f 101/6/4 104/7/4 102/7/4
f 100/7/9 103/6/9 99/6/9
f 100/7/3 102/7/3 104/7/3
f 97/6/10 102/7/10 98/7/10
f 106/1/1 107/2/1 105/3/1
f 108/4/2 111/5/2 107/2/2
f 112/6/6 109/9/6 111/5/6
f 110/7/3 105/8/3 109/9/3
f 111/5/4 105/10/4 107/11/4
f 108/13/5 110/7/5 112/6/5
f 114/1/1 115/2/1 113/3/1
f 116/4/2 119/5/2 115/2/2
f 120/6/6 117/9/6 119/5/6
f 118/7/3 113/8/3 117/9/3
f 119/5/4 113/10/4 115/11/4
f 116/13/5 118/7/5 120/6/5
f 2/1/1 4/4/1 3/2/1
f 4/4/2 8/6/2 7/5/2
f 8/6/2 29/6/2 30/5/2
f 6/7/3 2/12/3 1/8/3
f 7/5/4 5/9/4 1/10/4
f 8/6/5 4/4/5 10/4/5
f 11/6/6 15/6/6 16/7/6
f 6/7/5 8/6/5 11/6/5
f 4/4/5 2/1/5 9/1/5
f 2/12/5 6/7/5 12/7/5
f 16/7/3 20/7/3 17/12/3
f 9/1/1 13/1/1 14/4/1
f 12/7/3 16/7/3 13/12/3
f 10/4/2 14/4/2 15/6/2
f 18/4/2 22/4/2 23/6/2
f 14/4/2 18/4/2 19/6/2
f 5/9/3 31/9/3 32/7/3
f 13/1/1 17/1/1 18/4/1
f 28/7/5 40/7/5 39/6/5
f 19/6/6 23/6/6 24/7/6
f 17/1/1 21/1/1 22/4/1
f 20/7/3 24/7/3 21/12/3
f 26/13/5 25/14/5 28/7/5
f 21/1/1 25/1/1 26/4/1
f 24/7/3 28/7/3 25/12/3
f 22/4/2 26/4/2 27/6/2
f 29/6/6 32/7/6 31/9/6
f 33/6/6 35/6/6 36/7/6
f 37/6/6 39/6/6 40/7/6
f 20/7/5 36/7/5 35/6/5
f 7/5/4 30/5/4 31/9/4
f 27/6/2 39/6/2 37/6/2
f 23/6/4 37/6/4 38/7/4
f 19/6/2 35/6/2 33/6/2
f 6/7/5 32/7/5 29/6/5
f 24/7/3 38/7/3 40/7/3
f 16/7/3 34/7/3 36/7/3
f 15/6/4 33/6/4 34/7/4
f 42/1/1 44/4/1 43/2/1
f 44/4/2 48/6/2 47/5/2
f 48/6/6 46/7/6 45/9/6
f 46/7/3 42/12/3 41/8/3
f 47/5/4 45/9/4 41/10/4
f 44/4/2 50/4/2 51/6/2
f 50/13/5 49/14/5 52/7/5
f 46/7/3 54/7/3 56/7/3
f 42/1/1 49/1/1 50/4/1
f 46/7/3 52/7/3 49/12/3
f 54/7/3 58/7/3 60/7/3
f 52/7/5 56/7/5 55/6/5
f 48/6/4 53/6/4 54/7/4
f 51/6/2 55/6/2 53/6/2
f 57/6/6 59/6/6 60/7/6
f 56/7/5 60/7/5 59/6/5
f 55/6/2 59/6/2 57/6/2
f 54/7/3 62/7/3 64/7/3
f 62/7/3 66/7/3 68/7/3
f 58/7/7 64/7/7 63/6/7
f 53/6/2 57/6/2 63/6/2
f 53/6/8 61/6/8 62/7/8
f 67/6/2 71/6/2 69/6/2
f 61/6/1 65/6/1 66/7/1
f 63/6/2 67/6/2 65/6/2
f 64/7/6 68/7/6 67/6/6
f 69/6/4 71/6/4 72/7/4
f 68/7/9 72/7/9 71/6/9
f 68/7/3 66/7/3 70/7/3
f 65/6/10 69/6/10 70/7/10
f 74/1/1 76/4/1 75/2/1
f 76/4/2 80/6/2 79/5/2
f 80/6/6 78/7/6 77/9/6
f 78/7/3 74/12/3 73/8/3
f 79/5/4 77/9/4 73/10/4
f 76/4/2 82/4/2 83/6/2
f 82/13/5 81/14/5 84/7/5
f 78/7/3 86/7/3 88/7/3
f 74/1/1 81/1/1 82/4/1
f 78/7/3 84/7/3 81/12/3
f 86/7/3 90/7/3 92/7/3
f 84/7/5 88/7/5 87/6/5
f 80/6/4 85/6/4 86/7/4
f 83/6/2 87/6/2 85/6/2
f 89/6/6 91/6/6 92/7/6
f 88/7/5 92/7/5 91/6/5
f 87/6/2 91/6/2 89/6/2
f 86/7/3 94/7/3 96/7/3
f 94/7/3 98/7/3 100/7/3
f 90/7/7 96/7/7 95/6/7
f 85/6/2 89/6/2 95/6/2
f 85/6/8 93/6/8 94/7/8
f 99/6/2 103/6/2 101/6/2
f 93/6/1 97/6/1 98/7/1
f 95/6/2 99/6/2 97/6/2
f 96/7/6 100/7/6 99/6/6
f 101/6/4 103/6/4 104/7/4
f 100/7/9 104/7/9 103/6/9
f 100/7/3 98/7/3 102/7/3
f 97/6/10 101/6/10 102/7/10
f 106/1/1 108/4/1 107/2/1
f 108/4/2 112/6/2 111/5/2
f 112/6/6 110/7/6 109/9/6
f 110/7/3 106/12/3 105/8/3
f 111/5/4 109/9/4 105/10/4
f 108/13/5 106/14/5 110/7/5
f 114/1/1 116/4/1 115/2/1
f 116/4/2 120/6/2 119/5/2
f 120/6/6 118/7/6 117/9/6
f 118/7/3 114/12/3 113/8/3
f 119/5/4 117/9/4 113/10/4
f 116/13/5 114/14/5 118/7/5
